<svg width="37" height="34" viewBox="0 0 37 34" fill="none" xmlns="http://www.w3.org/2000/svg">
<path d="M22.9783 8.76257H6.92233V21.5874C6.92233 22.3089 6.26686 22.8994 5.46603 22.8994C4.66518 22.8994 4.00974 22.3089 4.00974 21.5874V7.45072C4.00974 6.72924 4.66521 6.13874 5.46603 6.13874H22.9782L21.9589 5.22045C21.3762 4.69555 21.3762 3.87566 21.9589 3.35072C22.5415 2.82579 23.4516 2.82582 24.0343 3.35072L27.5295 6.49961C27.6024 6.56523 27.6388 6.63084 27.7116 6.69645C27.7116 6.72926 27.748 6.72926 27.748 6.76206C27.7844 6.82767 27.8208 6.86048 27.8573 6.92609C27.8573 6.9589 27.8937 6.9917 27.8937 7.02451C27.9301 7.09012 27.9301 7.12293 27.9301 7.18854C27.9665 7.28696 27.9665 7.35257 27.9665 7.45099C27.9665 7.54941 27.9665 7.61502 27.9301 7.71344C27.9301 7.77905 27.8937 7.81185 27.8573 7.87747C27.8573 7.91027 27.8573 7.94308 27.8208 7.97588C27.7844 8.0415 27.748 8.0743 27.7116 8.13991C27.7116 8.17272 27.6752 8.17272 27.6752 8.20553C27.6388 8.27114 27.5659 8.33675 27.4931 8.40236L23.9978 11.5513C23.7065 11.8137 23.3424 11.9449 22.9785 11.9449C22.6144 11.9449 22.2502 11.8137 21.9592 11.5513C21.3766 11.0264 21.3766 10.2065 21.9592 9.68153L22.9783 8.76257ZM31.7889 10.8617C30.9881 10.8617 30.3326 11.4522 30.3326 12.1736V24.9985H14.2767L15.296 24.0802C15.8786 23.5553 15.8786 22.7354 15.296 22.2105C14.7133 21.6856 13.8032 21.6856 13.2206 22.2105L9.7623 25.3922C9.68947 25.4578 9.65305 25.5234 9.58022 25.589C9.58022 25.6218 9.54381 25.6218 9.54381 25.6546C9.50739 25.7203 9.47098 25.7531 9.43456 25.8187C9.43456 25.8515 9.39815 25.8843 9.39815 25.9171C9.36173 25.9827 9.36173 26.0155 9.36173 26.0811C9.32532 26.1795 9.32532 26.2451 9.32532 26.3436C9.32532 26.442 9.32532 26.5076 9.36173 26.606C9.36173 26.6716 9.39815 26.7044 9.39815 26.77C9.39815 26.8029 9.39815 26.8357 9.43456 26.8685C9.47098 26.9341 9.50739 26.9669 9.54381 27.0325C9.54381 27.0653 9.58022 27.0653 9.58022 27.0981C9.61664 27.1637 9.68947 27.2293 9.7623 27.2949L13.2576 30.4438C13.5489 30.7063 13.913 30.8375 14.2769 30.8375C14.641 30.8375 15.0052 30.7063 15.2962 30.4438C15.8788 29.9189 15.8788 29.099 15.2962 28.5741L14.2769 27.6558H31.789C32.5899 27.6558 33.2453 27.0653 33.2453 26.3438V12.1739C33.2453 11.4524 32.5898 10.8617 31.7889 10.8617Z" fill="#A6D885"/>
</svg>
