<svg width="36" height="35" viewBox="0 0 36 35" fill="none" xmlns="http://www.w3.org/2000/svg">
<path d="M20.7675 23.3646V11.6348L13.3425 17.4998L20.7675 23.3646Z" fill="#A6D885"/>
<path d="M18 2.43191C13.8894 2.43191 9.94779 4.01942 7.04108 6.84513C4.13436 9.67083 2.50177 13.5032 2.50177 17.4996C2.50177 21.4957 4.13464 25.3281 7.04108 28.1541C9.94751 30.9798 13.8894 32.5673 18 32.5673C22.1102 32.5673 26.0522 30.9798 28.9589 28.1541C31.8653 25.3284 33.4982 21.496 33.4982 17.4996C33.4935 13.5048 31.8593 9.6752 28.9537 6.84991C26.0484 4.02503 22.1092 2.43622 18.0004 2.43164L18 2.43191ZM21.8746 24.4949H21.8743C21.8743 24.7024 21.7515 24.8917 21.5587 24.9809C21.3659 25.0701 21.1374 25.0434 20.9715 24.9125L12.1156 17.9166L12.1159 17.9164C11.9865 17.8144 11.9113 17.6608 11.9113 17.499C11.9113 17.3369 11.9865 17.1834 12.1159 17.0814L20.9717 10.0855H20.9715C21.1374 9.95436 21.3659 9.92765 21.5587 10.0168C21.7515 10.106 21.8743 10.2954 21.8743 10.5031L21.8746 24.4949Z" fill="#A6D885"/>
</svg>
