<svg width="40" height="38" viewBox="0 0 40 38" fill="none" xmlns="http://www.w3.org/2000/svg">
<path d="M25.1226 22.6938C24.7719 22.6938 24.4353 22.8267 24.1876 23.0632C23.9396 23.2994 23.8002 23.6203 23.8002 23.9547V30.2584H15.8666V6.30383C15.8669 6.0514 15.7875 5.80459 15.6392 5.59532C15.4906 5.38637 15.2797 5.22465 15.0336 5.13143L8.1843 2.52136H23.8004V13.8684C23.8004 14.3189 24.0523 14.7349 24.4614 14.9601C24.8705 15.1854 25.3747 15.1854 25.7838 14.9601C26.1929 14.7349 26.4449 14.3189 26.4449 13.8684V1.26093C26.4449 0.926543 26.3054 0.605919 26.0578 0.369424C25.8097 0.132945 25.4731 0 25.1228 0H1.32242C1.17349 0.00187679 1.02586 0.0272139 0.8861 0.0756989H0.806708L0.6348 0.163912L0.489465 0.289972H0.423197C0.317234 0.389445 0.23587 0.509874 0.185354 0.643132V0.71883C0.0810282 0.883679 0.0177123 1.06917 0 1.26092V31.5192C0 31.772 0.079063 32.0185 0.227673 32.2277C0.376283 32.4367 0.587227 32.5984 0.833276 32.692L14.0558 37.735H14.0554C14.2106 37.7954 14.3773 37.8254 14.5449 37.8232C14.8087 37.8239 15.0665 37.7491 15.2854 37.609C15.6495 37.3741 15.8677 36.9818 15.867 36.5624V32.7803H25.1229C25.4733 32.7803 25.8099 32.6473 26.0579 32.4108C26.3056 32.1744 26.4451 31.8537 26.4451 31.5193V23.9551C26.4451 23.6207 26.3056 23.2997 26.0579 23.0636C25.8099 22.8271 25.4733 22.6941 25.1229 22.6941L25.1226 22.6938ZM13.222 34.6959L2.6442 30.6613L2.64388 3.12647L13.2217 7.16104L13.222 34.6959Z" fill="#77726A"/>
<path d="M39.2833 18.0164L33.9942 12.9733C33.659 12.6536 33.1702 12.5285 32.7118 12.6458C32.2535 12.7628 31.8959 13.1041 31.7729 13.5408C31.6502 13.9778 31.7811 14.4438 32.1167 14.7636L35.1578 17.6508H19.8332C19.3608 17.6508 18.9242 17.891 18.6879 18.2811C18.4517 18.6711 18.4517 19.1519 18.6879 19.542C18.9241 19.9321 19.3608 20.1723 19.8332 20.1723H35.1578L32.1167 23.0595C31.8664 23.2963 31.7256 23.6185 31.7256 23.9548C31.7256 24.2907 31.8664 24.6129 32.1167 24.8497C32.365 25.0884 32.7029 25.2226 33.0553 25.2226C33.408 25.2226 33.7459 25.0884 33.9942 24.8497L39.2833 19.8067C39.4037 19.6869 39.4979 19.5455 39.5609 19.3906C39.6931 19.0838 39.6931 18.7394 39.5609 18.4325C39.4979 18.2777 39.4037 18.1362 39.2833 18.0164Z" fill="#77726A"/>
</svg>
