<svg width="38" height="33" viewBox="0 0 38 33" fill="none" xmlns="http://www.w3.org/2000/svg">
<path d="M19 2.25391C9.97872 2.25391 2.64072 8.51685 2.64072 16.2163C2.64072 23.9152 9.9788 30.1787 19 30.1787C28.0206 30.1787 35.3593 23.9158 35.3593 16.2163C35.359 8.51679 28.0209 2.25391 19 2.25391ZM19 28.1834C11.2679 28.1834 4.97786 22.8149 4.97786 16.2157C4.97786 9.61645 11.2679 4.24799 19 4.24799C26.7321 4.24799 33.0222 9.61645 33.0222 16.2157C33.0219 22.8149 26.7318 28.1834 19 28.1834Z" fill="#A6D885"/>
<path d="M30.685 16.2154C30.685 16.766 30.1626 17.2126 29.5167 17.2126H20.1688V25.1908C20.1688 25.7414 19.6464 26.188 19.0005 26.188C18.3542 26.188 17.8321 25.7411 17.8321 25.1908V17.2126H8.48351C7.83728 17.2126 7.31516 16.7657 7.31516 16.2154C7.31516 15.6649 7.83759 15.2182 8.48351 15.2182H17.8314V7.23936C17.8314 6.68881 18.3538 6.24219 18.9997 6.24219C19.6459 6.24219 20.1681 6.68906 20.1681 7.23936V15.2176H29.5159C30.1624 15.2176 30.6846 15.6645 30.6846 16.215L30.685 16.2154Z" fill="#A6D885"/>
</svg>
