<svg width="22" height="22" viewBox="0 0 22 22" fill="none" xmlns="http://www.w3.org/2000/svg">
<g clip-path="url(#clip0_1_156)">
<path d="M21.7561 10.4783C21.5605 10.2118 16.8999 3.95361 10.9475 3.95361C4.99512 3.95361 0.334331 10.2118 0.138941 10.478C-0.0463136 10.7308 -0.0463136 11.0737 0.138941 11.3265C0.334331 11.593 4.99512 17.8512 10.9475 17.8512C16.8999 17.8512 21.5605 11.5929 21.7561 11.3267C21.9416 11.074 21.9416 10.7308 21.7561 10.4783ZM10.9475 16.4135C6.56294 16.4135 2.76543 12.2598 1.64129 10.9019C2.76398 9.54281 6.55353 5.39129 10.9475 5.39129C15.3319 5.39129 19.1291 9.54426 20.2537 10.9029C19.131 12.2619 15.3415 16.4135 10.9475 16.4135Z" fill="#B1B1B1"/>
<path d="M10.9475 6.58936C8.55948 6.58936 6.61658 8.52424 6.61658 10.9024C6.61658 13.2806 8.55948 15.2155 10.9475 15.2155C13.3356 15.2155 15.2785 13.2806 15.2785 10.9024C15.2785 8.52424 13.3356 6.58936 10.9475 6.58936ZM10.9475 13.7778C9.35541 13.7778 8.06026 12.4879 8.06026 10.9024C8.06026 9.31692 9.35546 8.02707 10.9475 8.02707C12.5396 8.02707 13.8348 9.31692 13.8348 10.9024C13.8348 12.4879 12.5396 13.7778 10.9475 13.7778Z" fill="#B1B1B1"/>
</g>
<defs>
<clipPath id="clip0_1_156">
<rect width="21.8952" height="21.8048" fill="white"/>
</clipPath>
</defs>
</svg>
