<svg width="22" height="22" viewBox="0 0 22 22" fill="none" xmlns="http://www.w3.org/2000/svg">
<path d="M10.95 15.0562C8.69156 15.0562 6.84375 13.2084 6.84375 10.95C6.84375 8.69156 8.69156 6.84375 10.95 6.84375C13.2084 6.84375 15.0562 8.69156 15.0562 10.95C15.0562 13.2084 13.2084 15.0562 10.95 15.0562ZM10.95 8.2125C9.44437 8.2125 8.2125 9.44437 8.2125 10.95C8.2125 12.4556 9.44437 13.6875 10.95 13.6875C12.4556 13.6875 13.6875 12.4556 13.6875 10.95C13.6875 9.44437 12.4556 8.2125 10.95 8.2125Z" fill="#B1B1B1"/>
<path d="M10.9499 17.7939C6.58363 17.7939 2.75113 15.1386 1.40976 11.1692C1.35479 11.0284 1.35479 10.872 1.40976 10.7312C2.75113 6.77551 6.59732 4.10645 10.9499 4.10645C15.3026 4.10645 19.1488 6.76182 20.4901 10.7312C20.5449 10.8681 20.5449 11.0323 20.4901 11.1692C19.1488 15.1249 15.3026 17.7939 10.9499 17.7939ZM2.77851 10.9502C3.9967 14.2352 7.25432 16.4252 10.9499 16.4252C14.6456 16.4252 17.8895 14.2352 19.1214 10.9502C17.9032 7.6652 14.6456 5.4752 10.9499 5.4752C7.25432 5.4752 4.01038 7.6652 2.77851 10.9502Z" fill="#B1B1B1"/>
<path d="M19.1625 19.847C19.0727 19.8481 18.9837 19.8304 18.9012 19.795C18.8187 19.7597 18.7445 19.7074 18.6834 19.6417L2.25841 3.21668C1.98466 2.94293 1.98466 2.51861 2.25841 2.24486C2.53216 1.97111 2.95648 1.97111 3.23023 2.24486L19.6415 18.6836C19.9153 18.9573 19.9153 19.3816 19.6415 19.6554C19.5047 19.7922 19.3267 19.8607 19.1625 19.8607V19.847Z" fill="#B1B1B1"/>
</svg>
