<svg width="45" height="42" viewBox="0 0 45 42" fill="none" xmlns="http://www.w3.org/2000/svg">
<path d="M20.9497 13.9741C15.3408 11.4881 9.22504 10.1564 3.01645 10.0687H2.33427C1.89207 10.0783 1.4715 10.2504 1.16392 10.5474C0.856643 10.8444 0.686698 11.2424 0.691506 11.6555V34.3863C0.694939 34.8055 0.878616 35.206 1.201 35.4979C1.52819 35.7902 1.96558 35.9504 2.41846 35.9443H3.02065C8.84718 36.0292 14.5897 37.2482 19.8825 39.5232C20.3363 39.7145 20.863 39.679 21.2826 39.429C21.7024 39.1791 21.9586 38.7481 21.9637 38.2835V15.4706C21.9641 15.1572 21.869 14.8499 21.6894 14.5852C21.5098 14.3202 21.2534 14.1084 20.9495 13.9745L20.9497 13.9741ZM20.6352 38.2586H20.6355C20.6362 38.3041 20.6108 38.3467 20.5689 38.3701C20.5253 38.3939 20.4711 38.3939 20.4275 38.3701C14.9604 36.0294 9.03068 34.7794 3.01633 34.7002H2.3829C2.28883 34.7054 2.19682 34.672 2.13056 34.6092C2.05983 34.5455 2.01967 34.4573 2.02001 34.3654V11.6353C2.01966 11.4514 2.17691 11.3008 2.37397 11.2963H3.02045C9.03516 11.3851 14.9595 12.6789 20.3912 15.0903C20.5402 15.1604 20.6342 15.3024 20.6349 15.4581L20.6352 38.2586ZM20.2857 11.3458C20.573 11.5342 20.6537 11.8989 20.4697 12.1783C20.2853 12.4574 19.9001 12.5545 19.5904 12.3997C12.6474 8.41157 6.61602 7.36182 4.67715 7.08915L4.42481 8.36194C4.35889 8.70417 4.00801 8.932 3.641 8.87015C3.27433 8.80863 3.03023 8.48114 3.09649 8.13892L3.37974 6.70879C3.48994 6.14899 4.05025 5.76764 4.65521 5.84106C6.46619 6.05575 12.9001 7.09717 20.2857 11.3458ZM20.7859 10.4034C15.3528 6.05578 10.3708 4.18383 8.73257 3.64226L8.28968 4.71252C8.15303 5.03103 7.76543 5.18548 7.42416 5.05763C7.08289 4.93009 6.91741 4.56833 7.0544 4.24981L7.57694 3.01007C7.80628 2.49289 8.42391 2.22789 8.99382 2.40253C10.4948 2.8944 15.8572 4.81187 21.6536 9.4614C21.9324 9.68955 21.9602 10.0856 21.7157 10.3458C21.4709 10.606 21.0469 10.6319 20.7682 10.4035L20.7859 10.4034ZM42.6557 10.0769H41.9739C35.769 10.1634 29.656 11.4926 24.0495 13.9744C23.7463 14.108 23.4905 14.3192 23.311 14.5832C23.1314 14.8473 23.036 15.1536 23.0353 15.4664V38.2628C23.0404 38.7275 23.2969 39.1581 23.7164 39.4084C24.1363 39.6583 24.6627 39.6939 25.1165 39.5026C30.4116 37.2326 36.1565 36.0192 41.9828 35.94H42.5849C43.0378 35.9464 43.4755 35.7862 43.8027 35.4936C44.1302 35.1966 44.3142 34.7877 44.3118 34.3612V11.6312C44.3074 11.2226 44.1323 10.8317 43.8236 10.5414C43.5153 10.2514 43.0978 10.0847 42.6601 10.0771L42.6557 10.0769ZM42.9747 34.3655C42.9747 34.4575 42.9348 34.5456 42.8638 34.6094C42.7958 34.6751 42.7003 34.7097 42.6025 34.7046H41.9694C35.9558 34.7895 30.0268 36.0453 24.5627 38.3909C24.5187 38.4146 24.4648 38.4146 24.4209 38.3909C24.379 38.3675 24.3539 38.3249 24.3546 38.2794V15.4706C24.355 15.3149 24.449 15.1726 24.598 15.1027C30.0345 12.6895 35.9632 11.3957 41.9828 11.3088H42.6293C42.8263 11.3133 42.9836 11.4636 42.9836 11.6478L42.9747 34.3655ZM24.4965 12.2015C24.4035 12.0612 24.374 11.8923 24.4145 11.7314C24.4553 11.5709 24.5628 11.4322 24.7135 11.346C32.0994 7.09732 38.5334 6.05593 40.3264 5.83707C40.9317 5.76177 41.4933 6.14405 41.6019 6.7048L41.8851 8.13493C41.951 8.47716 41.7073 8.80464 41.3406 8.86617C40.9736 8.92801 40.6227 8.7005 40.5568 8.35796L40.3045 7.08516C38.3651 7.33734 32.3338 8.40759 25.3912 12.3999C25.0791 12.5784 24.6712 12.4877 24.479 12.1974L24.4965 12.2015ZM36.266 3.64238C34.6276 4.17975 29.6241 6.05591 24.2083 10.4036C23.9295 10.632 23.5051 10.6061 23.2607 10.3459C23.0163 10.0857 23.0441 9.68964 23.3228 9.46151C29.1411 4.81198 34.5034 2.89449 36.0046 2.40263C36.5821 2.21902 37.2127 2.48947 37.4393 3.01819L37.9618 4.25793V4.25825C38.0988 4.57644 37.9333 4.93821 37.5921 5.06607C37.2508 5.19392 36.8632 5.03947 36.7262 4.72096L36.266 3.64238Z" fill="#71B0C5"/>
</svg>
