<svg width="44" height="47" viewBox="0 0 44 47" fill="none" xmlns="http://www.w3.org/2000/svg">
<path d="M39.8956 33.4572C40.5583 32.5604 40.9517 31.4251 40.9517 30.1988C40.9517 27.2767 38.7277 24.9011 35.9989 24.9011C33.2633 24.9011 31.0394 27.2767 31.0394 30.1988C31.0394 31.4251 31.4395 32.5605 32.0954 33.4572C30.1863 34.8306 28.999 37.1359 28.999 39.6445L28.9997 41.719C28.9997 42.2375 29.3935 42.6509 29.8721 42.6509H42.1199C42.6054 42.6509 42.9924 42.2303 42.9924 41.719V39.6449C42.9924 37.1291 41.8051 34.831 39.896 33.4572H39.8956ZM35.9925 26.7726C37.7636 26.7726 39.2004 28.3073 39.2004 30.1992C39.2004 31.3412 38.6626 32.3363 37.8687 32.967C36.4451 34.0951 34.7397 33.4855 34.123 32.967C33.3426 32.3155 32.7914 31.3412 32.7914 30.1992C32.7846 28.307 34.2278 26.7726 35.9925 26.7726ZM41.2404 40.7872H30.744V39.6452C30.744 37.5991 31.7937 35.7212 33.4533 34.7401C33.4664 34.7473 33.4862 34.7541 33.5057 34.7681C34.2405 35.2235 35.0868 35.4899 35.9919 35.4899C36.8972 35.4899 37.7499 35.2235 38.478 34.7681C38.4911 34.7609 38.5109 34.7541 38.524 34.7401C40.1837 35.7212 41.2334 37.5919 41.2334 39.6452L41.2337 40.7872H41.2404Z" fill="#71B0C5"/>
<path d="M11.9041 33.4572C12.5667 32.5604 12.9602 31.4251 12.9602 30.1988C12.9602 27.2767 10.7362 24.9011 8.00734 24.9011C5.27177 24.9011 3.0478 27.2767 3.0478 30.1988C3.0478 31.4251 3.44794 32.5605 4.10388 33.4572C2.19512 34.831 1.00781 37.1291 1.00781 39.6449V41.719C1.00781 42.2375 1.40158 42.6509 1.88025 42.6509H14.1281C14.6135 42.6509 15.0005 42.2303 15.0005 41.719V39.6449C15.0005 37.1291 13.8132 34.831 11.9041 33.4572ZM8.00734 26.7726C9.77842 26.7726 11.2152 28.3073 11.2152 30.1992C11.2152 31.3412 10.6774 32.3363 9.88352 32.967C8.45988 34.0951 6.75454 33.4855 6.13785 32.967C5.35737 32.3155 4.80616 31.3412 4.80616 30.1992C4.79945 28.307 6.23625 26.7726 8.00734 26.7726ZM13.2555 40.7872H2.75913V39.6452C2.75913 37.5991 3.80886 35.7212 5.46848 34.7401C5.48158 34.7473 5.50138 34.7541 5.52085 34.7681C6.25569 35.2235 7.10193 35.4899 8.00702 35.4899C8.91238 35.4899 9.76505 35.2235 10.4932 34.7681C10.5063 34.7609 10.5261 34.7541 10.5392 34.7401C12.1988 35.7212 13.2485 37.5919 13.2485 39.6452V40.7872H13.2555Z" fill="#71B0C5"/>
<path d="M28.9996 19.0854C28.9996 16.5768 27.8123 14.2715 25.9032 12.8982C26.5659 12.0013 26.9593 10.866 26.9593 9.63973C26.9593 6.71765 24.7353 4.34204 22.0065 4.34204C19.2709 4.34204 17.0469 6.71765 17.0469 9.63973C17.0469 10.866 17.4471 12.0014 18.103 12.8982C16.1939 14.2715 15.0066 16.5768 15.0066 19.0854V21.1595C15.0066 21.678 15.4004 22.0914 15.879 22.0914H28.1268C28.6123 22.0914 28.9993 21.6708 28.9993 21.1595L28.9996 19.0854ZM22.0001 6.21277C23.7712 6.21277 25.208 7.74752 25.208 9.63936C25.208 10.7814 24.6702 11.7765 23.8763 12.4072C22.4526 13.5353 20.7473 12.9257 20.1306 12.4072C19.3501 11.7557 18.7989 10.7814 18.7989 9.63936C18.7922 7.75431 20.2287 6.21277 22.0001 6.21277ZM27.248 20.2274H16.7516V19.085C16.7516 17.0389 17.8013 15.161 19.4609 14.1799C19.474 14.1871 19.4938 14.1939 19.5133 14.2079C20.2481 14.6633 21.0943 14.9297 21.9994 14.9297C22.9048 14.9297 23.7575 14.6633 24.4856 14.2079C24.4987 14.2007 24.5185 14.1939 24.5316 14.1799C26.1912 15.161 27.241 17.0317 27.241 19.085V20.2274H27.248Z" fill="#71B0C5"/>
<path d="M22.8722 30.0589V24.9014C22.8722 24.3829 22.4785 23.9695 21.9998 23.9695C21.5144 23.9695 21.1274 24.3901 21.1274 24.9014V30.0589L17.0799 33.5135C16.7059 33.8359 16.6405 34.4243 16.9422 34.831C17.1128 35.0623 17.7294 35.3986 18.1756 34.978L21.9998 31.7056L25.8244 34.978C26.3689 35.3775 26.8805 35.0623 27.051 34.831C27.3528 34.4247 27.2937 33.8431 26.9133 33.5135L22.8722 30.0589Z" fill="#71B0C5"/>
<path d="M28.9007 12.4633C32.502 14.4602 35.0738 18.1952 35.7821 22.4554C35.8542 22.9107 36.2282 23.2263 36.6414 23.2263C36.6938 23.2263 36.7465 23.2191 36.7922 23.2123C37.2712 23.1212 37.5861 22.6379 37.5008 22.1333C36.7069 17.3054 33.7877 13.0731 29.7073 10.8093C29.281 10.5712 28.7495 10.7462 28.5263 11.2087C28.3038 11.6641 28.4743 12.2246 28.9006 12.4627L28.9007 12.4633Z" fill="#71B0C5"/>
<path d="M25.2795 39.3917C23.0555 40.0013 20.9366 40.0013 18.7193 39.3917C18.2537 39.2655 17.7747 39.5599 17.6502 40.0644C17.532 40.5618 17.8143 41.0735 18.2799 41.2065C19.5331 41.5432 20.7859 41.7182 21.9997 41.7182C23.2133 41.7182 24.4664 41.5428 25.7192 41.1997C26.1848 41.0734 26.4671 40.5621 26.349 40.0644C26.2241 39.5599 25.7454 39.2655 25.2795 39.3917Z" fill="#71B0C5"/>
<path d="M7.20664 23.2125C7.25901 23.2197 7.31172 23.2265 7.35737 23.2265C7.77732 23.2265 8.14457 22.9113 8.21675 22.4556C8.91868 18.1953 11.4901 14.4602 15.0981 12.4635C15.5244 12.2254 15.695 11.6646 15.4721 11.202C15.2492 10.7466 14.7241 10.5644 14.2911 10.8025C10.2044 13.0659 7.29159 17.2983 6.49762 22.1266C6.41302 22.6387 6.7279 23.122 7.2066 23.2131L7.20664 23.2125Z" fill="#71B0C5"/>
</svg>
